{
	"asset":{
		"generator":"Khronos glTF Blender I/O v3.6.27",
		"version":"2.0"
	},
	"scene":0,
	"scenes":[
		{
			"name":"Scene",
			"nodes":[
				5
			]
		}
	],
	"nodes":[
		{
			"mesh":0,
			"name":"gold2.002",
			"rotation":[
				0.6536611914634705,
				0,
				0,
				0.7567873597145081
			],
			"scale":[
				5,
				5,
				5
			],
			"translation":[
				0,
				0.0011000242084264755,
				0
			]
		},
		{
			"mesh":1,
			"name":"haro-r",
			"rotation":[
				0.6536611914634705,
				0,
				0,
				0.7567873597145081
			],
			"scale":[
				5,
				5,
				5
			],
			"translation":[
				0,
				0.0011000242084264755,
				0
			]
		},
		{
			"mesh":2,
			"name":"Round",
			"rotation":[
				0.6536611914634705,
				0,
				0,
				0.7567873597145081
			],
			"scale":[
				5,
				5,
				5
			],
			"translation":[
				0,
				0.0011000242084264755,
				0
			]
		},
		{
			"mesh":3,
			"name":"Round.003",
			"rotation":[
				0.6536611914634705,
				0,
				0,
				0.7567873597145081
			],
			"scale":[
				5,
				5,
				5
			],
			"translation":[
				0,
				0.0011000242084264755,
				0
			]
		},
		{
			"mesh":4,
			"name":"Round.004",
			"rotation":[
				0.6536611914634705,
				0,
				0,
				0.7567873597145081
			],
			"scale":[
				5,
				5,
				5
			],
			"translation":[
				0,
				0.0011000242084264755,
				0
			]
		},
		{
			"children":[
				0,
				1,
				2,
				3,
				4
			],
			"name":"Diamond ring (Halo)"
		}
	],
	"materials":[
		{
			"doubleSided":true,
			"name":"Fine Gold.002",
			"pbrMetallicRoughness":{
				"roughnessFactor":0.040909089148044586
			}
		},
		{
			"doubleSided":true,
			"name":"diamond.001",
			"pbrMetallicRoughness":{}
		}
	],
	"meshes":[
		{
			"name":"\u30c8\u30fc\u30e9\u30b9.002",
			"primitives":[
				{
					"attributes":{
						"POSITION":0,
						"NORMAL":1,
						"TEXCOORD_0":2
					},
					"indices":3,
					"material":0
				}
			]
		},
		{
			"name":"dmesh.007",
			"primitives":[
				{
					"attributes":{
						"POSITION":4,
						"NORMAL":5
					},
					"indices":6,
					"material":0
				}
			]
		},
		{
			"name":"dmesh.003",
			"primitives":[
				{
					"attributes":{
						"POSITION":7,
						"NORMAL":8
					},
					"indices":9,
					"material":1
				}
			]
		},
		{
			"name":"dmesh.002",
			"primitives":[
				{
					"attributes":{
						"POSITION":10,
						"NORMAL":11
					},
					"indices":12,
					"material":1
				}
			]
		},
		{
			"name":"dmesh.001",
			"primitives":[
				{
					"attributes":{
						"POSITION":13,
						"NORMAL":14
					},
					"indices":15,
					"material":1
				}
			]
		}
	],
	"accessors":[
		{
			"bufferView":0,
			"componentType":5126,
			"count":1912,
			"max":[
				0.005764060188084841,
				0.00547505309805274,
				0.0004573521437123418
			],
			"min":[
				-0.005764035973697901,
				-0.006123985629528761,
				-0.00043876306153833866
			],
			"type":"VEC3"
		},
		{
			"bufferView":1,
			"componentType":5126,
			"count":1912,
			"type":"VEC3"
		},
		{
			"bufferView":2,
			"componentType":5126,
			"count":1912,
			"type":"VEC2"
		},
		{
			"bufferView":3,
			"componentType":5123,
			"count":11424,
			"type":"SCALAR"
		},
		{
			"bufferView":4,
			"componentType":5126,
			"count":906,
			"max":[
				0.0021092460956424475,
				0.006959166377782822,
				0.0021246180403977633
			],
			"min":[
				-0.0021092218812555075,
				0.005240226164460182,
				-0.0020938499365001917
			],
			"type":"VEC3"
		},
		{
			"bufferView":5,
			"componentType":5126,
			"count":906,
			"type":"VEC3"
		},
		{
			"bufferView":6,
			"componentType":5123,
			"count":5424,
			"type":"SCALAR"
		},
		{
			"bufferView":7,
			"componentType":5126,
			"count":544,
			"max":[
				0.001645353389903903,
				0.007683539297431707,
				0.0016607254510745406
			],
			"min":[
				-0.001645329175516963,
				0.005676222499459982,
				-0.0016299571143463254
			],
			"type":"VEC3"
		},
		{
			"bufferView":8,
			"componentType":5126,
			"count":544,
			"type":"VEC3"
		},
		{
			"bufferView":9,
			"componentType":5123,
			"count":906,
			"type":"SCALAR"
		},
		{
			"bufferView":10,
			"componentType":5126,
			"count":15232,
			"max":[
				0.005788588896393776,
				0.00546732172369957,
				0.00034272606717422605
			],
			"min":[
				-0.005788564682006836,
				-0.0023455347400158644,
				-0.0003119387256447226
			],
			"type":"VEC3"
		},
		{
			"bufferView":11,
			"componentType":5126,
			"count":15232,
			"type":"VEC3"
		},
		{
			"bufferView":12,
			"componentType":5123,
			"count":25368,
			"type":"SCALAR"
		},
		{
			"bufferView":13,
			"componentType":5126,
			"count":10880,
			"max":[
				0.0020516887307167053,
				0.007062774617224932,
				0.0020671384409070015
			],
			"min":[
				-0.002051732735708356,
				0.006835991516709328,
				-0.002036263467743993
			],
			"type":"VEC3"
		},
		{
			"bufferView":14,
			"componentType":5126,
			"count":10880,
			"type":"VEC3"
		},
		{
			"bufferView":15,
			"componentType":5123,
			"count":18120,
			"type":"SCALAR"
		}
	],
	"bufferViews":[
		{
			"buffer":0,
			"byteLength":22944,
			"byteOffset":0,
			"target":34962
		},
		{
			"buffer":0,
			"byteLength":22944,
			"byteOffset":22944,
			"target":34962
		},
		{
			"buffer":0,
			"byteLength":15296,
			"byteOffset":45888,
			"target":34962
		},
		{
			"buffer":0,
			"byteLength":22848,
			"byteOffset":61184,
			"target":34963
		},
		{
			"buffer":0,
			"byteLength":10872,
			"byteOffset":84032,
			"target":34962
		},
		{
			"buffer":0,
			"byteLength":10872,
			"byteOffset":94904,
			"target":34962
		},
		{
			"buffer":0,
			"byteLength":10848,
			"byteOffset":105776,
			"target":34963
		},
		{
			"buffer":0,
			"byteLength":6528,
			"byteOffset":116624,
			"target":34962
		},
		{
			"buffer":0,
			"byteLength":6528,
			"byteOffset":123152,
			"target":34962
		},
		{
			"buffer":0,
			"byteLength":1812,
			"byteOffset":129680,
			"target":34963
		},
		{
			"buffer":0,
			"byteLength":182784,
			"byteOffset":131492,
			"target":34962
		},
		{
			"buffer":0,
			"byteLength":182784,
			"byteOffset":314276,
			"target":34962
		},
		{
			"buffer":0,
			"byteLength":50736,
			"byteOffset":497060,
			"target":34963
		},
		{
			"buffer":0,
			"byteLength":130560,
			"byteOffset":547796,
			"target":34962
		},
		{
			"buffer":0,
			"byteLength":130560,
			"byteOffset":678356,
			"target":34962
		},
		{
			"buffer":0,
			"byteLength":36240,
			"byteOffset":808916,
			"target":34963
		}
	],
	"buffers":[
		{
			"byteLength":845156,
			"uri":"ring.bin"
		}
	]
}
