{
	"asset":{
		"generator":"Khronos glTF Blender I/O v3.6.27",
		"version":"2.0"
	},
	"scene":0,
	"scenes":[
		{
			"name":"Scene",
			"nodes":[
				8
			]
		}
	],
	"nodes":[
		{
			"mesh":0,
			"name":"Circle",
			"translation":[
				0,
				0.02456286922097206,
				0
			]
		},
		{
			"mesh":1,
			"name":"Circle.001",
			"translation":[
				0,
				0.010515181347727776,
				-1.2869892998423893e-05
			]
		},
		{
			"mesh":2,
			"name":"Cylinder",
			"translation":[
				-1.6372658137697726e-05,
				0.020806580781936646,
				2.1374546122387983e-05
			]
		},
		{
			"mesh":3,
			"name":"Gem",
			"translation":[
				0,
				0.025618473067879677,
				0
			]
		},
		{
			"mesh":4,
			"name":"Sphere",
			"translation":[
				0.0044196187518537045,
				0.025344058871269226,
				7.023729722277494e-06
			]
		},
		{
			"mesh":5,
			"name":"Sphere.001",
			"translation":[
				-1.0177766853303183e-05,
				0.025365296751260757,
				-0.004441433120518923
			]
		},
		{
			"mesh":6,
			"name":"Sphere.002",
			"translation":[
				-0.004442664794623852,
				0.02537616901099682,
				1.2027912816847675e-05
			]
		},
		{
			"mesh":7,
			"name":"Sphere.003",
			"translation":[
				0,
				0.02538072131574154,
				0.004454844631254673
			]
		},
		{
			"children":[
				0,
				1,
				2,
				3,
				4,
				5,
				6,
				7
			],
			"name":"Ring"
		}
	],
	"materials":[
		{
			"doubleSided":true,
			"name":"gold",
			"pbrMetallicRoughness":{
				"baseColorTexture":{
					"index":0
				},
				"roughnessFactor":0.10000000149011612
			}
		},
		{
			"doubleSided":true,
			"name":"gem",
			"pbrMetallicRoughness":{
				"baseColorFactor":[
					1,
					0,
					0.4286903738975525,
					1
				],
				"roughnessFactor":0
			}
		}
	],
	"meshes":[
		{
			"name":"Circle",
			"primitives":[
				{
					"attributes":{
						"POSITION":0,
						"NORMAL":1,
						"TEXCOORD_0":2
					},
					"indices":3,
					"material":0
				}
			]
		},
		{
			"name":"Circle.001",
			"primitives":[
				{
					"attributes":{
						"POSITION":4,
						"NORMAL":5,
						"TEXCOORD_0":6
					},
					"indices":7,
					"material":0
				}
			]
		},
		{
			"name":"Cylinder",
			"primitives":[
				{
					"attributes":{
						"POSITION":8,
						"NORMAL":9,
						"TEXCOORD_0":10
					},
					"indices":11,
					"material":0
				}
			]
		},
		{
			"name":"Gem",
			"primitives":[
				{
					"attributes":{
						"POSITION":12,
						"NORMAL":13,
						"TEXCOORD_0":14
					},
					"indices":15,
					"material":1
				}
			]
		},
		{
			"name":"Sphere",
			"primitives":[
				{
					"attributes":{
						"POSITION":16,
						"NORMAL":17,
						"TEXCOORD_0":18
					},
					"indices":19,
					"material":0
				}
			]
		},
		{
			"name":"Sphere.001",
			"primitives":[
				{
					"attributes":{
						"POSITION":20,
						"NORMAL":21,
						"TEXCOORD_0":22
					},
					"indices":23,
					"material":0
				}
			]
		},
		{
			"name":"Sphere.002",
			"primitives":[
				{
					"attributes":{
						"POSITION":24,
						"NORMAL":25,
						"TEXCOORD_0":26
					},
					"indices":27,
					"material":0
				}
			]
		},
		{
			"name":"Sphere.003",
			"primitives":[
				{
					"attributes":{
						"POSITION":28,
						"NORMAL":29,
						"TEXCOORD_0":30
					},
					"indices":31,
					"material":0
				}
			]
		}
	],
	"textures":[
		{
			"sampler":0,
			"source":0
		}
	],
	"images":[
		{
			"bufferView":4,
			"mimeType":"image/png",
			"name":"Untitled"
		}
	],
	"accessors":[
		{
			"bufferView":0,
			"componentType":5126,
			"count":192,
			"max":[
				0.004672857467085123,
				0.0008290447294712067,
				0.004672857467085123
			],
			"min":[
				-0.004672857467085123,
				-0.0008389018476009369,
				-0.004672857467085123
			],
			"type":"VEC3"
		},
		{
			"bufferView":1,
			"componentType":5126,
			"count":192,
			"type":"VEC3"
		},
		{
			"bufferView":2,
			"componentType":5126,
			"count":192,
			"type":"VEC2"
		},
		{
			"bufferView":3,
			"componentType":5123,
			"count":1152,
			"type":"SCALAR"
		},
		{
			"bufferView":5,
			"componentType":5126,
			"count":217,
			"max":[
				0.010580355301499367,
				0.01045357808470726,
				0.0011980583658441901
			],
			"min":[
				-0.010580357164144516,
				-0.010494161397218704,
				-0.0011980574345216155
			],
			"type":"VEC3"
		},
		{
			"bufferView":6,
			"componentType":5126,
			"count":217,
			"type":"VEC3"
		},
		{
			"bufferView":7,
			"componentType":5126,
			"count":217,
			"type":"VEC2"
		},
		{
			"bufferView":8,
			"componentType":5123,
			"count":1260,
			"type":"SCALAR"
		},
		{
			"bufferView":9,
			"componentType":5126,
			"count":633,
			"max":[
				0.002140176948159933,
				0.0007301326841115952,
				0.002102429745718837
			],
			"min":[
				-0.002107431646436453,
				-0.0007587000727653503,
				-0.002145178848877549
			],
			"type":"VEC3"
		},
		{
			"bufferView":10,
			"componentType":5126,
			"count":633,
			"type":"VEC3"
		},
		{
			"bufferView":11,
			"componentType":5126,
			"count":633,
			"type":"VEC2"
		},
		{
			"bufferView":12,
			"componentType":5123,
			"count":2022,
			"type":"SCALAR"
		},
		{
			"bufferView":13,
			"componentType":5126,
			"count":160,
			"max":[
				0.0042211562395095825,
				0.001525217667222023,
				0.0042211562395095825
			],
			"min":[
				-0.0042211562395095825,
				-0.003729073330760002,
				-0.0042211562395095825
			],
			"type":"VEC3"
		},
		{
			"bufferView":14,
			"componentType":5126,
			"count":160,
			"type":"VEC3"
		},
		{
			"bufferView":15,
			"componentType":5126,
			"count":160,
			"type":"VEC2"
		},
		{
			"bufferView":16,
			"componentType":5123,
			"count":192,
			"type":"SCALAR"
		},
		{
			"bufferView":17,
			"componentType":5126,
			"count":499,
			"max":[
				0.000926140695810318,
				0.0009334739297628403,
				0.0005622074822895229
			],
			"min":[
				-0.004411091096699238,
				-0.004651086404919624,
				-0.0005762555520050228
			],
			"type":"VEC3"
		},
		{
			"bufferView":18,
			"componentType":5126,
			"count":499,
			"type":"VEC3"
		},
		{
			"bufferView":19,
			"componentType":5126,
			"count":499,
			"type":"VEC2"
		},
		{
			"bufferView":20,
			"componentType":5123,
			"count":1239,
			"type":"SCALAR"
		},
		{
			"bufferView":21,
			"componentType":5126,
			"count":495,
			"max":[
				0.000579408893827349,
				0.0009126104414463043,
				0.004432905465364456
			],
			"min":[
				-0.0005590540822595358,
				-0.004672324284911156,
				-0.0009138248860836029
			],
			"type":"VEC3"
		},
		{
			"bufferView":22,
			"componentType":5126,
			"count":495,
			"type":"VEC3"
		},
		{
			"bufferView":23,
			"componentType":5126,
			"count":495,
			"type":"VEC2"
		},
		{
			"bufferView":24,
			"componentType":5123,
			"count":1257,
			"type":"SCALAR"
		},
		{
			"bufferView":25,
			"componentType":5126,
			"count":509,
			"max":[
				0.004434137139469385,
				0.0009013637900352478,
				0.0005572049994952977
			],
			"min":[
				-0.0009030946530401707,
				-0.004683196544647217,
				-0.0005812587914988399
			],
			"type":"VEC3"
		},
		{
			"bufferView":26,
			"componentType":5126,
			"count":509,
			"type":"VEC3"
		},
		{
			"bufferView":27,
			"componentType":5126,
			"count":509,
			"type":"VEC2"
		},
		{
			"bufferView":28,
			"componentType":5123,
			"count":1296,
			"type":"SCALAR"
		},
		{
			"bufferView":29,
			"componentType":5126,
			"count":496,
			"max":[
				0.000568990595638752,
				0.0008968114852905273,
				0.0008909148164093494
			],
			"min":[
				-0.0005694738356396556,
				-0.004687748849391937,
				-0.004446316976100206
			],
			"type":"VEC3"
		},
		{
			"bufferView":30,
			"componentType":5126,
			"count":496,
			"type":"VEC3"
		},
		{
			"bufferView":31,
			"componentType":5126,
			"count":496,
			"type":"VEC2"
		},
		{
			"bufferView":32,
			"componentType":5123,
			"count":1323,
			"type":"SCALAR"
		}
	],
	"bufferViews":[
		{
			"buffer":0,
			"byteLength":2304,
			"byteOffset":0,
			"target":34962
		},
		{
			"buffer":0,
			"byteLength":2304,
			"byteOffset":2304,
			"target":34962
		},
		{
			"buffer":0,
			"byteLength":1536,
			"byteOffset":4608,
			"target":34962
		},
		{
			"buffer":0,
			"byteLength":2304,
			"byteOffset":6144,
			"target":34963
		},
		{
			"buffer":0,
			"byteLength":371557,
			"byteOffset":8448
		},
		{
			"buffer":0,
			"byteLength":2604,
			"byteOffset":380008,
			"target":34962
		},
		{
			"buffer":0,
			"byteLength":2604,
			"byteOffset":382612,
			"target":34962
		},
		{
			"buffer":0,
			"byteLength":1736,
			"byteOffset":385216,
			"target":34962
		},
		{
			"buffer":0,
			"byteLength":2520,
			"byteOffset":386952,
			"target":34963
		},
		{
			"buffer":0,
			"byteLength":7596,
			"byteOffset":389472,
			"target":34962
		},
		{
			"buffer":0,
			"byteLength":7596,
			"byteOffset":397068,
			"target":34962
		},
		{
			"buffer":0,
			"byteLength":5064,
			"byteOffset":404664,
			"target":34962
		},
		{
			"buffer":0,
			"byteLength":4044,
			"byteOffset":409728,
			"target":34963
		},
		{
			"buffer":0,
			"byteLength":1920,
			"byteOffset":413772,
			"target":34962
		},
		{
			"buffer":0,
			"byteLength":1920,
			"byteOffset":415692,
			"target":34962
		},
		{
			"buffer":0,
			"byteLength":1280,
			"byteOffset":417612,
			"target":34962
		},
		{
			"buffer":0,
			"byteLength":384,
			"byteOffset":418892,
			"target":34963
		},
		{
			"buffer":0,
			"byteLength":5988,
			"byteOffset":419276,
			"target":34962
		},
		{
			"buffer":0,
			"byteLength":5988,
			"byteOffset":425264,
			"target":34962
		},
		{
			"buffer":0,
			"byteLength":3992,
			"byteOffset":431252,
			"target":34962
		},
		{
			"buffer":0,
			"byteLength":2478,
			"byteOffset":435244,
			"target":34963
		},
		{
			"buffer":0,
			"byteLength":5940,
			"byteOffset":437724,
			"target":34962
		},
		{
			"buffer":0,
			"byteLength":5940,
			"byteOffset":443664,
			"target":34962
		},
		{
			"buffer":0,
			"byteLength":3960,
			"byteOffset":449604,
			"target":34962
		},
		{
			"buffer":0,
			"byteLength":2514,
			"byteOffset":453564,
			"target":34963
		},
		{
			"buffer":0,
			"byteLength":6108,
			"byteOffset":456080,
			"target":34962
		},
		{
			"buffer":0,
			"byteLength":6108,
			"byteOffset":462188,
			"target":34962
		},
		{
			"buffer":0,
			"byteLength":4072,
			"byteOffset":468296,
			"target":34962
		},
		{
			"buffer":0,
			"byteLength":2592,
			"byteOffset":472368,
			"target":34963
		},
		{
			"buffer":0,
			"byteLength":5952,
			"byteOffset":474960,
			"target":34962
		},
		{
			"buffer":0,
			"byteLength":5952,
			"byteOffset":480912,
			"target":34962
		},
		{
			"buffer":0,
			"byteLength":3968,
			"byteOffset":486864,
			"target":34962
		},
		{
			"buffer":0,
			"byteLength":2646,
			"byteOffset":490832,
			"target":34963
		}
	],
	"samplers":[
		{
			"magFilter":9729,
			"minFilter":9987
		}
	],
	"buffers":[
		{
			"byteLength":493480,
			"uri":"data:application/octet-stream;base64,"
		}
	]
}
